# Blender 3.2.2
# www.blender.org
mtllib level.mtl
o Plane
v -1.000000 0.000000 1.000000
v 1.000000 0.000000 1.000000
v -1.000000 0.000000 -1.000000
v 1.000000 0.000000 -1.000000
v -3.000000 0.000000 1.000000
v -3.000000 0.000000 -1.000000
v -5.000000 0.000000 1.000000
v -5.000000 0.000000 -1.000000
v -1.000000 0.993110 1.000000
v 1.000000 0.993110 1.000000
v -3.000000 0.993110 1.000000
v -5.000000 0.993110 1.000000
v -1.000000 0.000000 -2.000000
v 1.000000 0.000000 -2.000000
v -6.000000 0.500000 1.000000
v -6.000000 0.500000 -1.000000
v -6.000000 0.993901 1.000000
v -7.000000 0.500000 1.000000
v -7.000000 0.500000 -1.000000
v -7.000000 0.993901 1.000000
v -7.000000 0.993901 -1.000000
v -7.700000 0.993901 1.000000
v -7.700000 0.993901 -1.000000
v -6.000000 1.593901 1.000000
v -7.000000 1.593901 1.000000
v -7.700000 1.593901 1.000000
v -7.700000 -0.006099 1.000000
v -7.700000 -0.006099 -1.000000
v -7.888575 0.993901 1.000000
v -7.888575 1.167690 1.000000
v -7.888575 -0.006099 1.000000
v -7.888575 0.993901 -1.000000
v -7.888575 1.167690 -1.000000
v -7.888575 -0.006099 -1.000000
v -8.501596 1.167690 1.000000
v -8.501596 1.167690 -1.000000
v -8.188414 1.595589 1.000000
v -8.504085 1.595589 1.000000
v -7.891063 1.595589 1.000000
vn -0.0000 1.0000 -0.0000
vn -0.0000 -0.0000 -1.0000
vn 0.4472 0.8944 -0.0000
vn 1.0000 -0.0000 -0.0000
vn -1.0000 -0.0000 -0.0000
vt 0.000000 0.000000
vt 1.000000 0.000000
vt 0.000000 0.000000
vt 0.000000 1.000000
vt 1.000000 1.000000
vt 0.000000 0.000000
vt 0.000000 1.000000
vt 0.000000 0.000000
vt 0.000000 1.000000
vt 0.000000 0.000000
vt 1.000000 0.000000
vt 0.000000 0.000000
vt 0.000000 0.000000
vt 0.000000 1.000000
vt 1.000000 1.000000
vt 0.000000 0.000000
vt 0.000000 1.000000
vt 0.000000 0.000000
vt 0.000000 0.000000
vt 0.000000 1.000000
vt 0.000000 0.000000
vt 0.000000 0.000000
vt 0.000000 0.000000
vt 0.000000 0.000000
vt 0.000000 0.000000
vt 0.000000 0.000000
vt 0.000000 0.000000
vt 0.000000 0.000000
vt 0.000000 0.000000
vt 0.000000 0.000000
vt 0.000000 0.000000
vt 0.000000 0.000000
vt 0.000000 0.000000
vt 0.000000 0.000000
vt 0.000000 0.000000
vt 0.000000 0.000000
vt 0.000000 0.000000
vt 0.000000 0.000000
vt 0.000000 0.000000
vt 0.000000 0.000000
s 0
f 1/1/1 2/2/1 3/4/1
f 1/1/1 3/4/1 5/6/1
f 5/6/1 6/7/1 8/9/1
f 5/6/2 12/13/2 11/12/2
f 1/1/2 5/6/2 9/10/2
f 2/2/2 1/1/2 9/10/2
f 4/5/1 3/3/1 2/2/1
f 12/13/2 15/16/2 17/18/2
f 7/8/3 8/9/3 15/16/3
f 17/18/2 15/16/2 20/21/2
f 15/16/1 19/20/1 18/19/1
f 18/19/4 19/20/4 20/21/4
f 20/21/4 19/20/4 21/22/4
f 20/21/1 23/24/1 22/23/1
f 20/21/2 26/27/2 25/26/2
f 17/18/2 25/26/2 24/25/2
f 17/18/2 24/25/2 12/13/2
f 22/23/5 23/24/5 27/28/5
f 25/26/2 17/18/2 20/21/2
f 12/13/2 5/6/2 7/8/2
f 19/20/1 15/16/1 16/17/1
f 3/3/1 4/5/1 13/14/1
f 15/16/2 12/13/2 7/8/2
f 9/10/2 5/6/2 11/12/2
f 5/6/1 3/4/1 6/7/1
f 15/16/3 8/9/3 16/17/3
f 9/10/2 10/11/2 2/2/2
f 8/9/1 7/8/1 5/6/1
f 23/24/1 20/21/1 21/22/1
f 20/21/2 15/16/2 18/19/2
f 22/23/2 27/28/2 31/32/2 29/30/2
f 26/27/2 22/23/2 30/31/2
f 29/30/4 34/35/4 32/33/4
f 30/31/4 29/30/4 33/34/4
f 30/31/1 33/34/1 35/36/1
f 30/31/2 38/39/2 37/38/2
f 26/27/2 30/31/2 39/40/2
f 30/31/2 37/38/2 39/40/2
f 30/31/2 22/23/2 29/30/2
f 38/39/2 30/31/2 35/36/2
f 34/35/4 29/30/4 31/32/4
f 33/34/4 29/30/4 32/33/4
f 35/36/1 33/34/1 36/37/1
f 27/28/5 23/24/5 28/29/5
f 26/27/2 20/21/2 22/23/2
f 13/14/1 4/5/1 14/15/1
o Cube
v -0.109968 0.074949 0.109968
v -0.109968 0.294884 0.109968
v -0.109968 0.074949 -0.109968
v -0.109968 0.294884 -0.109968
v 0.109968 0.074949 0.109968
v 0.109968 0.294884 0.109968
v 0.109968 0.074949 -0.109968
v 0.109968 0.294884 -0.109968
vn -1.0000 -0.0000 -0.0000
vn -0.0000 -0.0000 -1.0000
vn 1.0000 -0.0000 -0.0000
vn -0.0000 -0.0000 1.0000
vn -0.0000 -1.0000 -0.0000
vn -0.0000 1.0000 -0.0000
vt 0.375000 0.000000
vt 0.375000 1.000000
vt 0.125000 0.750000
vt 0.625000 0.000000
vt 0.625000 1.000000
vt 0.875000 0.750000
vt 0.375000 0.250000
vt 0.125000 0.500000
vt 0.625000 0.250000
vt 0.875000 0.500000
vt 0.375000 0.750000
vt 0.625000 0.750000
vt 0.375000 0.500000
vt 0.625000 0.500000
s 0
f 40/41/6 41/44/6 43/49/6 42/47/6
f 42/47/7 43/49/7 47/54/7 46/53/7
f 46/53/8 47/54/8 45/52/8 44/51/8
f 44/51/9 45/52/9 41/45/9 40/42/9
f 42/48/10 46/53/10 44/51/10 40/43/10
f 47/54/11 43/50/11 41/46/11 45/52/11
o Cube.001
v 0.061135 0.213161 -0.326898
v 0.061135 0.090891 -0.326898
v 0.061135 0.213161 -0.204629
v 0.061135 0.090891 -0.204629
v -0.061135 0.213161 -0.326898
v -0.061135 0.090891 -0.326898
v -0.061135 0.213161 -0.204629
v -0.061135 0.090891 -0.204629
vn 1.0000 -0.0000 -0.0000
vn -0.0000 -0.0000 1.0000
vn -1.0000 -0.0000 -0.0000
vn -0.0000 -0.0000 -1.0000
vn -0.0000 1.0000 -0.0000
vn -0.0000 -1.0000 -0.0000
vt 0.375000 0.000000
vt 0.375000 1.000000
vt 0.125000 0.750000
vt 0.625000 0.000000
vt 0.625000 1.000000
vt 0.875000 0.750000
vt 0.375000 0.250000
vt 0.125000 0.500000
vt 0.625000 0.250000
vt 0.875000 0.500000
vt 0.375000 0.750000
vt 0.625000 0.750000
vt 0.375000 0.500000
vt 0.625000 0.500000
s 0
f 48/55/12 50/61/12 51/63/12 49/58/12
f 50/61/13 54/67/13 55/68/13 51/63/13
f 54/67/14 52/65/14 53/66/14 55/68/14
f 52/65/15 48/56/15 49/59/15 53/66/15
f 50/62/16 48/57/16 52/65/16 54/67/16
f 55/68/17 53/66/17 49/60/17 51/64/17
